<?xml version="1.0" standalone="no"?>
<!DOCTYPE svg PUBLIC "-//W3C//DTD SVG 20010904//EN"
 "http://www.w3.org/TR/2001/REC-SVG-20010904/DTD/svg10.dtd">
<svg version="1.0" xmlns="http://www.w3.org/2000/svg"
 width="260.000000pt" height="260.000000pt" viewBox="0 0 260.000000 260.000000"
 preserveAspectRatio="xMidYMid meet">
<metadata>
Created by potrace 1.14, written by Peter Selinger 2001-2017
</metadata>
<g transform="translate(0.000000,260.000000) scale(0.100000,-0.100000)"
fill="#000000" stroke="none">
<path d="M1773 2590 c-12 -5 -27 -19 -33 -31 -9 -16 -12 -327 -12 -1254 0
-677 3 -1241 6 -1253 4 -12 21 -29 38 -38 29 -15 45 -14 267 22 220 35 238 39
264 65 l27 27 0 1172 0 1172 -27 27 c-26 25 -45 30 -253 64 -243 40 -244 40
-277 27z"/>
<path d="M1515 2554 c-82 -18 -373 -81 -645 -140 -272 -58 -513 -114 -536
-124 -64 -27 -74 -60 -74 -234 0 -80 4 -146 8 -146 5 0 197 32 428 70 250 42
432 68 451 65 41 -7 92 -50 109 -92 11 -26 14 -141 14 -583 0 -602 1 -592 -59
-643 -54 -45 -78 -44 -313 17 -220 57 -273 65 -311 45 -12 -7 -82 -68 -155
-137 -127 -119 -132 -126 -115 -142 10 -9 315 -122 678 -250 363 -128 666
-235 674 -238 10 -4 9 2 -3 26 -15 29 -16 147 -14 1266 3 1197 4 1235 22 1255
24 27 26 27 -159 -15z"/>
<path d="M665 1588 c-176 -13 -169 -5 -173 -210 -3 -210 -11 -201 178 -223
210 -25 213 -22 208 228 -4 224 -2 221 -213 205z"/>
</g>
</svg>
